<mxfile host="app.diagrams.net" modified="2024-02-22T13:14:40.976Z" agent="Mozilla/5.0 (Windows NT 10.0; Win64; x64) AppleWebKit/537.36 (KHTML, like Gecko) Chrome/121.0.0.0 Safari/537.36" etag="hGsHAdet0sjreC9Qce7X" version="23.1.5" type="device">
  <diagram name="Page-1" id="zAuemz1h9tJhVQ07ybbl">
    <mxGraphModel dx="3066" dy="747" grid="1" gridSize="10" guides="1" tooltips="1" connect="1" arrows="1" fold="1" page="1" pageScale="1" pageWidth="850" pageHeight="1100" math="0" shadow="0">
      <root>
        <mxCell id="0" />
        <mxCell id="1" parent="0" />
        <mxCell id="c7T1HQ0UldDMD1ee_KOR-18" style="edgeStyle=orthogonalEdgeStyle;rounded=0;orthogonalLoop=1;jettySize=auto;html=1;exitX=0.5;exitY=1;exitDx=0;exitDy=0;entryX=0.5;entryY=0;entryDx=0;entryDy=0;" edge="1" parent="1" source="c7T1HQ0UldDMD1ee_KOR-1" target="c7T1HQ0UldDMD1ee_KOR-4">
          <mxGeometry relative="1" as="geometry" />
        </mxCell>
        <mxCell id="c7T1HQ0UldDMD1ee_KOR-19" style="edgeStyle=orthogonalEdgeStyle;rounded=0;orthogonalLoop=1;jettySize=auto;html=1;exitX=0.5;exitY=1;exitDx=0;exitDy=0;entryX=0.5;entryY=0;entryDx=0;entryDy=0;" edge="1" parent="1" source="c7T1HQ0UldDMD1ee_KOR-1" target="c7T1HQ0UldDMD1ee_KOR-3">
          <mxGeometry relative="1" as="geometry" />
        </mxCell>
        <mxCell id="c7T1HQ0UldDMD1ee_KOR-20" style="edgeStyle=orthogonalEdgeStyle;rounded=0;orthogonalLoop=1;jettySize=auto;html=1;exitX=0.5;exitY=1;exitDx=0;exitDy=0;entryX=0.5;entryY=0;entryDx=0;entryDy=0;" edge="1" parent="1" source="c7T1HQ0UldDMD1ee_KOR-1" target="c7T1HQ0UldDMD1ee_KOR-5">
          <mxGeometry relative="1" as="geometry" />
        </mxCell>
        <mxCell id="c7T1HQ0UldDMD1ee_KOR-1" value="First node" style="rounded=0;whiteSpace=wrap;html=1;" vertex="1" parent="1">
          <mxGeometry x="350" y="10" width="120" height="60" as="geometry" />
        </mxCell>
        <mxCell id="c7T1HQ0UldDMD1ee_KOR-23" style="edgeStyle=orthogonalEdgeStyle;rounded=0;orthogonalLoop=1;jettySize=auto;html=1;exitX=0.5;exitY=1;exitDx=0;exitDy=0;entryX=0.5;entryY=0;entryDx=0;entryDy=0;" edge="1" parent="1" source="c7T1HQ0UldDMD1ee_KOR-3" target="c7T1HQ0UldDMD1ee_KOR-22">
          <mxGeometry relative="1" as="geometry" />
        </mxCell>
        <mxCell id="c7T1HQ0UldDMD1ee_KOR-3" value="Registering Page" style="rounded=0;whiteSpace=wrap;html=1;" vertex="1" parent="1">
          <mxGeometry x="-470" y="120" width="120" height="60" as="geometry" />
        </mxCell>
        <mxCell id="c7T1HQ0UldDMD1ee_KOR-43" style="edgeStyle=orthogonalEdgeStyle;rounded=0;orthogonalLoop=1;jettySize=auto;html=1;exitX=0.5;exitY=1;exitDx=0;exitDy=0;entryX=0.5;entryY=0;entryDx=0;entryDy=0;" edge="1" parent="1" source="c7T1HQ0UldDMD1ee_KOR-4" target="c7T1HQ0UldDMD1ee_KOR-41">
          <mxGeometry relative="1" as="geometry" />
        </mxCell>
        <mxCell id="c7T1HQ0UldDMD1ee_KOR-4" value="Login&amp;nbsp;Page" style="rounded=0;whiteSpace=wrap;html=1;" vertex="1" parent="1">
          <mxGeometry x="350" y="120" width="120" height="60" as="geometry" />
        </mxCell>
        <mxCell id="c7T1HQ0UldDMD1ee_KOR-5" value="Exit&amp;nbsp;" style="rounded=0;whiteSpace=wrap;html=1;" vertex="1" parent="1">
          <mxGeometry x="710" y="120" width="120" height="60" as="geometry" />
        </mxCell>
        <mxCell id="c7T1HQ0UldDMD1ee_KOR-29" style="edgeStyle=orthogonalEdgeStyle;rounded=0;orthogonalLoop=1;jettySize=auto;html=1;exitX=0.5;exitY=1;exitDx=0;exitDy=0;entryX=0.5;entryY=0;entryDx=0;entryDy=0;" edge="1" parent="1" source="c7T1HQ0UldDMD1ee_KOR-8" target="c7T1HQ0UldDMD1ee_KOR-11">
          <mxGeometry relative="1" as="geometry" />
        </mxCell>
        <mxCell id="c7T1HQ0UldDMD1ee_KOR-8" value="Valid Input" style="rounded=0;whiteSpace=wrap;html=1;" vertex="1" parent="1">
          <mxGeometry x="-820" y="380" width="120" height="60" as="geometry" />
        </mxCell>
        <mxCell id="c7T1HQ0UldDMD1ee_KOR-34" style="edgeStyle=orthogonalEdgeStyle;rounded=0;orthogonalLoop=1;jettySize=auto;html=1;exitX=0.5;exitY=1;exitDx=0;exitDy=0;entryX=0.5;entryY=0;entryDx=0;entryDy=0;" edge="1" parent="1" source="c7T1HQ0UldDMD1ee_KOR-9" target="c7T1HQ0UldDMD1ee_KOR-33">
          <mxGeometry relative="1" as="geometry" />
        </mxCell>
        <mxCell id="c7T1HQ0UldDMD1ee_KOR-9" value="Invalid Input" style="rounded=0;whiteSpace=wrap;html=1;" vertex="1" parent="1">
          <mxGeometry x="-470" y="380" width="120" height="60" as="geometry" />
        </mxCell>
        <mxCell id="c7T1HQ0UldDMD1ee_KOR-30" style="edgeStyle=orthogonalEdgeStyle;rounded=0;orthogonalLoop=1;jettySize=auto;html=1;exitX=0.5;exitY=1;exitDx=0;exitDy=0;entryX=0.5;entryY=0;entryDx=0;entryDy=0;" edge="1" parent="1" source="c7T1HQ0UldDMD1ee_KOR-11">
          <mxGeometry relative="1" as="geometry">
            <mxPoint x="-910" y="600" as="targetPoint" />
          </mxGeometry>
        </mxCell>
        <mxCell id="c7T1HQ0UldDMD1ee_KOR-31" style="edgeStyle=orthogonalEdgeStyle;rounded=0;orthogonalLoop=1;jettySize=auto;html=1;exitX=0.5;exitY=1;exitDx=0;exitDy=0;entryX=0.5;entryY=0;entryDx=0;entryDy=0;" edge="1" parent="1" source="c7T1HQ0UldDMD1ee_KOR-11" target="c7T1HQ0UldDMD1ee_KOR-13">
          <mxGeometry relative="1" as="geometry" />
        </mxCell>
        <mxCell id="c7T1HQ0UldDMD1ee_KOR-32" style="edgeStyle=orthogonalEdgeStyle;rounded=0;orthogonalLoop=1;jettySize=auto;html=1;exitX=0.5;exitY=1;exitDx=0;exitDy=0;entryX=0.5;entryY=0;entryDx=0;entryDy=0;" edge="1" parent="1" source="c7T1HQ0UldDMD1ee_KOR-11" target="c7T1HQ0UldDMD1ee_KOR-14">
          <mxGeometry relative="1" as="geometry" />
        </mxCell>
        <mxCell id="c7T1HQ0UldDMD1ee_KOR-11" value="Goes To Either Page" style="ellipse;whiteSpace=wrap;html=1;" vertex="1" parent="1">
          <mxGeometry x="-820" y="480" width="120" height="80" as="geometry" />
        </mxCell>
        <mxCell id="c7T1HQ0UldDMD1ee_KOR-12" value="Admin Page" style="rounded=0;whiteSpace=wrap;html=1;" vertex="1" parent="1">
          <mxGeometry x="-970" y="600" width="120" height="60" as="geometry" />
        </mxCell>
        <mxCell id="c7T1HQ0UldDMD1ee_KOR-13" value="Vendor Page" style="rounded=0;whiteSpace=wrap;html=1;" vertex="1" parent="1">
          <mxGeometry x="-820" y="600" width="120" height="60" as="geometry" />
        </mxCell>
        <mxCell id="c7T1HQ0UldDMD1ee_KOR-14" value="User Page" style="rounded=0;whiteSpace=wrap;html=1;" vertex="1" parent="1">
          <mxGeometry x="-630" y="600" width="120" height="60" as="geometry" />
        </mxCell>
        <mxCell id="c7T1HQ0UldDMD1ee_KOR-37" style="edgeStyle=orthogonalEdgeStyle;rounded=0;orthogonalLoop=1;jettySize=auto;html=1;exitX=0.5;exitY=1;exitDx=0;exitDy=0;entryX=1;entryY=0.5;entryDx=0;entryDy=0;" edge="1" parent="1" source="c7T1HQ0UldDMD1ee_KOR-15" target="c7T1HQ0UldDMD1ee_KOR-33">
          <mxGeometry relative="1" as="geometry" />
        </mxCell>
        <mxCell id="c7T1HQ0UldDMD1ee_KOR-15" value="Weak Password" style="rounded=0;whiteSpace=wrap;html=1;" vertex="1" parent="1">
          <mxGeometry x="-250" y="380" width="120" height="60" as="geometry" />
        </mxCell>
        <mxCell id="c7T1HQ0UldDMD1ee_KOR-38" style="edgeStyle=orthogonalEdgeStyle;rounded=0;orthogonalLoop=1;jettySize=auto;html=1;exitX=0.5;exitY=1;exitDx=0;exitDy=0;entryX=1;entryY=0.5;entryDx=0;entryDy=0;" edge="1" parent="1" source="c7T1HQ0UldDMD1ee_KOR-16" target="c7T1HQ0UldDMD1ee_KOR-33">
          <mxGeometry relative="1" as="geometry" />
        </mxCell>
        <mxCell id="c7T1HQ0UldDMD1ee_KOR-16" value="The Email Chosen Already Exists" style="rounded=0;whiteSpace=wrap;html=1;" vertex="1" parent="1">
          <mxGeometry x="-20" y="380" width="120" height="60" as="geometry" />
        </mxCell>
        <mxCell id="c7T1HQ0UldDMD1ee_KOR-24" style="edgeStyle=orthogonalEdgeStyle;rounded=0;orthogonalLoop=1;jettySize=auto;html=1;exitX=0.5;exitY=1;exitDx=0;exitDy=0;entryX=0.5;entryY=0;entryDx=0;entryDy=0;" edge="1" parent="1" source="c7T1HQ0UldDMD1ee_KOR-22" target="c7T1HQ0UldDMD1ee_KOR-8">
          <mxGeometry relative="1" as="geometry" />
        </mxCell>
        <mxCell id="c7T1HQ0UldDMD1ee_KOR-25" style="edgeStyle=orthogonalEdgeStyle;rounded=0;orthogonalLoop=1;jettySize=auto;html=1;exitX=0.5;exitY=1;exitDx=0;exitDy=0;entryX=0.5;entryY=0;entryDx=0;entryDy=0;" edge="1" parent="1" source="c7T1HQ0UldDMD1ee_KOR-22" target="c7T1HQ0UldDMD1ee_KOR-9">
          <mxGeometry relative="1" as="geometry" />
        </mxCell>
        <mxCell id="c7T1HQ0UldDMD1ee_KOR-26" style="edgeStyle=orthogonalEdgeStyle;rounded=0;orthogonalLoop=1;jettySize=auto;html=1;exitX=0.5;exitY=1;exitDx=0;exitDy=0;entryX=0.5;entryY=0;entryDx=0;entryDy=0;" edge="1" parent="1" source="c7T1HQ0UldDMD1ee_KOR-22" target="c7T1HQ0UldDMD1ee_KOR-15">
          <mxGeometry relative="1" as="geometry" />
        </mxCell>
        <mxCell id="c7T1HQ0UldDMD1ee_KOR-27" style="edgeStyle=orthogonalEdgeStyle;rounded=0;orthogonalLoop=1;jettySize=auto;html=1;exitX=0.5;exitY=1;exitDx=0;exitDy=0;entryX=0.5;entryY=0;entryDx=0;entryDy=0;" edge="1" parent="1" source="c7T1HQ0UldDMD1ee_KOR-22" target="c7T1HQ0UldDMD1ee_KOR-16">
          <mxGeometry relative="1" as="geometry" />
        </mxCell>
        <mxCell id="c7T1HQ0UldDMD1ee_KOR-52" style="edgeStyle=orthogonalEdgeStyle;rounded=0;orthogonalLoop=1;jettySize=auto;html=1;exitX=0.5;exitY=1;exitDx=0;exitDy=0;" edge="1" parent="1" source="c7T1HQ0UldDMD1ee_KOR-22" target="c7T1HQ0UldDMD1ee_KOR-51">
          <mxGeometry relative="1" as="geometry" />
        </mxCell>
        <mxCell id="c7T1HQ0UldDMD1ee_KOR-22" value="&lt;br&gt;&lt;span style=&quot;color: rgb(0, 0, 0); font-family: Helvetica; font-size: 12px; font-style: normal; font-variant-ligatures: normal; font-variant-caps: normal; font-weight: 400; letter-spacing: normal; orphans: 2; text-align: center; text-indent: 0px; text-transform: none; widows: 2; word-spacing: 0px; -webkit-text-stroke-width: 0px; background-color: rgb(251, 251, 251); text-decoration-thickness: initial; text-decoration-style: initial; text-decoration-color: initial; float: none; display: inline !important;&quot;&gt;Enter Password:__&lt;/span&gt;&lt;br style=&quot;border-color: var(--border-color); color: rgb(0, 0, 0); font-family: Helvetica; font-size: 12px; font-style: normal; font-variant-ligatures: normal; font-variant-caps: normal; font-weight: 400; letter-spacing: normal; orphans: 2; text-align: center; text-indent: 0px; text-transform: none; widows: 2; word-spacing: 0px; -webkit-text-stroke-width: 0px; background-color: rgb(251, 251, 251); text-decoration-thickness: initial; text-decoration-style: initial; text-decoration-color: initial;&quot;&gt;&lt;span style=&quot;color: rgb(0, 0, 0); font-family: Helvetica; font-size: 12px; font-style: normal; font-variant-ligatures: normal; font-variant-caps: normal; font-weight: 400; letter-spacing: normal; orphans: 2; text-align: center; text-indent: 0px; text-transform: none; widows: 2; word-spacing: 0px; -webkit-text-stroke-width: 0px; background-color: rgb(251, 251, 251); text-decoration-thickness: initial; text-decoration-style: initial; text-decoration-color: initial; float: none; display: inline !important;&quot;&gt;Enter Email:__&lt;/span&gt;&lt;br style=&quot;border-color: var(--border-color); color: rgb(0, 0, 0); font-family: Helvetica; font-size: 12px; font-style: normal; font-variant-ligatures: normal; font-variant-caps: normal; font-weight: 400; letter-spacing: normal; orphans: 2; text-align: center; text-indent: 0px; text-transform: none; widows: 2; word-spacing: 0px; -webkit-text-stroke-width: 0px; background-color: rgb(251, 251, 251); text-decoration-thickness: initial; text-decoration-style: initial; text-decoration-color: initial;&quot;&gt;&lt;span style=&quot;color: rgb(0, 0, 0); font-family: Helvetica; font-size: 12px; font-style: normal; font-variant-ligatures: normal; font-variant-caps: normal; font-weight: 400; letter-spacing: normal; orphans: 2; text-align: center; text-indent: 0px; text-transform: none; widows: 2; word-spacing: 0px; -webkit-text-stroke-width: 0px; background-color: rgb(251, 251, 251); text-decoration-thickness: initial; text-decoration-style: initial; text-decoration-color: initial; float: none; display: inline !important;&quot;&gt;.............&lt;/span&gt;" style="ellipse;whiteSpace=wrap;html=1;" vertex="1" parent="1">
          <mxGeometry x="-470" y="240" width="120" height="80" as="geometry" />
        </mxCell>
        <mxCell id="c7T1HQ0UldDMD1ee_KOR-36" style="edgeStyle=orthogonalEdgeStyle;rounded=0;orthogonalLoop=1;jettySize=auto;html=1;exitX=0;exitY=0.5;exitDx=0;exitDy=0;entryX=0;entryY=0.5;entryDx=0;entryDy=0;fillColor=#d5e8d4;strokeColor=#82b366;" edge="1" parent="1" source="c7T1HQ0UldDMD1ee_KOR-33" target="c7T1HQ0UldDMD1ee_KOR-22">
          <mxGeometry relative="1" as="geometry">
            <Array as="points">
              <mxPoint x="-530" y="530" />
              <mxPoint x="-530" y="280" />
            </Array>
          </mxGeometry>
        </mxCell>
        <mxCell id="c7T1HQ0UldDMD1ee_KOR-33" value="Message Showing The Problem" style="ellipse;whiteSpace=wrap;html=1;" vertex="1" parent="1">
          <mxGeometry x="-470" y="490" width="120" height="80" as="geometry" />
        </mxCell>
        <mxCell id="c7T1HQ0UldDMD1ee_KOR-46" style="edgeStyle=orthogonalEdgeStyle;rounded=0;orthogonalLoop=1;jettySize=auto;html=1;exitX=0.5;exitY=1;exitDx=0;exitDy=0;entryX=0.5;entryY=0;entryDx=0;entryDy=0;" edge="1" parent="1" source="c7T1HQ0UldDMD1ee_KOR-41" target="c7T1HQ0UldDMD1ee_KOR-45">
          <mxGeometry relative="1" as="geometry" />
        </mxCell>
        <mxCell id="c7T1HQ0UldDMD1ee_KOR-48" style="edgeStyle=orthogonalEdgeStyle;rounded=0;orthogonalLoop=1;jettySize=auto;html=1;exitX=0.5;exitY=1;exitDx=0;exitDy=0;entryX=0.5;entryY=0;entryDx=0;entryDy=0;" edge="1" parent="1" source="c7T1HQ0UldDMD1ee_KOR-41" target="c7T1HQ0UldDMD1ee_KOR-47">
          <mxGeometry relative="1" as="geometry" />
        </mxCell>
        <mxCell id="c7T1HQ0UldDMD1ee_KOR-50" style="edgeStyle=orthogonalEdgeStyle;rounded=0;orthogonalLoop=1;jettySize=auto;html=1;exitX=0.5;exitY=1;exitDx=0;exitDy=0;entryX=0.5;entryY=0;entryDx=0;entryDy=0;" edge="1" parent="1" source="c7T1HQ0UldDMD1ee_KOR-41" target="c7T1HQ0UldDMD1ee_KOR-49">
          <mxGeometry relative="1" as="geometry" />
        </mxCell>
        <mxCell id="c7T1HQ0UldDMD1ee_KOR-54" style="edgeStyle=orthogonalEdgeStyle;rounded=0;orthogonalLoop=1;jettySize=auto;html=1;exitX=0.5;exitY=1;exitDx=0;exitDy=0;entryX=0.5;entryY=0;entryDx=0;entryDy=0;" edge="1" parent="1" source="c7T1HQ0UldDMD1ee_KOR-41" target="c7T1HQ0UldDMD1ee_KOR-53">
          <mxGeometry relative="1" as="geometry" />
        </mxCell>
        <mxCell id="c7T1HQ0UldDMD1ee_KOR-41" value="&lt;br&gt;&lt;span style=&quot;color: rgb(0, 0, 0); font-family: Helvetica; font-size: 12px; font-style: normal; font-variant-ligatures: normal; font-variant-caps: normal; font-weight: 400; letter-spacing: normal; orphans: 2; text-align: center; text-indent: 0px; text-transform: none; widows: 2; word-spacing: 0px; -webkit-text-stroke-width: 0px; background-color: rgb(251, 251, 251); text-decoration-thickness: initial; text-decoration-style: initial; text-decoration-color: initial; float: none; display: inline !important;&quot;&gt;Enter Password:__&lt;/span&gt;&lt;br style=&quot;border-color: var(--border-color); color: rgb(0, 0, 0); font-family: Helvetica; font-size: 12px; font-style: normal; font-variant-ligatures: normal; font-variant-caps: normal; font-weight: 400; letter-spacing: normal; orphans: 2; text-align: center; text-indent: 0px; text-transform: none; widows: 2; word-spacing: 0px; -webkit-text-stroke-width: 0px; background-color: rgb(251, 251, 251); text-decoration-thickness: initial; text-decoration-style: initial; text-decoration-color: initial;&quot;&gt;&lt;span style=&quot;color: rgb(0, 0, 0); font-family: Helvetica; font-size: 12px; font-style: normal; font-variant-ligatures: normal; font-variant-caps: normal; font-weight: 400; letter-spacing: normal; orphans: 2; text-align: center; text-indent: 0px; text-transform: none; widows: 2; word-spacing: 0px; -webkit-text-stroke-width: 0px; background-color: rgb(251, 251, 251); text-decoration-thickness: initial; text-decoration-style: initial; text-decoration-color: initial; float: none; display: inline !important;&quot;&gt;Enter Email:__&lt;/span&gt;&lt;br style=&quot;border-color: var(--border-color); color: rgb(0, 0, 0); font-family: Helvetica; font-size: 12px; font-style: normal; font-variant-ligatures: normal; font-variant-caps: normal; font-weight: 400; letter-spacing: normal; orphans: 2; text-align: center; text-indent: 0px; text-transform: none; widows: 2; word-spacing: 0px; -webkit-text-stroke-width: 0px; background-color: rgb(251, 251, 251); text-decoration-thickness: initial; text-decoration-style: initial; text-decoration-color: initial;&quot;&gt;&lt;span style=&quot;color: rgb(0, 0, 0); font-family: Helvetica; font-size: 12px; font-style: normal; font-variant-ligatures: normal; font-variant-caps: normal; font-weight: 400; letter-spacing: normal; orphans: 2; text-align: center; text-indent: 0px; text-transform: none; widows: 2; word-spacing: 0px; -webkit-text-stroke-width: 0px; background-color: rgb(251, 251, 251); text-decoration-thickness: initial; text-decoration-style: initial; text-decoration-color: initial; float: none; display: inline !important;&quot;&gt;.............&lt;/span&gt;" style="ellipse;whiteSpace=wrap;html=1;" vertex="1" parent="1">
          <mxGeometry x="350" y="240" width="120" height="80" as="geometry" />
        </mxCell>
        <mxCell id="c7T1HQ0UldDMD1ee_KOR-45" value="Wrong Email Or Password" style="rounded=0;whiteSpace=wrap;html=1;" vertex="1" parent="1">
          <mxGeometry x="350" y="370" width="120" height="60" as="geometry" />
        </mxCell>
        <mxCell id="c7T1HQ0UldDMD1ee_KOR-47" value="Invalid Input Form" style="rounded=0;whiteSpace=wrap;html=1;" vertex="1" parent="1">
          <mxGeometry x="540" y="370" width="120" height="60" as="geometry" />
        </mxCell>
        <mxCell id="c7T1HQ0UldDMD1ee_KOR-49" value="Reset Password" style="rounded=0;whiteSpace=wrap;html=1;" vertex="1" parent="1">
          <mxGeometry x="710" y="370" width="120" height="60" as="geometry" />
        </mxCell>
        <mxCell id="c7T1HQ0UldDMD1ee_KOR-51" value="Exit" style="rounded=0;whiteSpace=wrap;html=1;" vertex="1" parent="1">
          <mxGeometry x="-1000" y="380" width="120" height="60" as="geometry" />
        </mxCell>
        <mxCell id="c7T1HQ0UldDMD1ee_KOR-53" value="Valid Input" style="rounded=0;whiteSpace=wrap;html=1;" vertex="1" parent="1">
          <mxGeometry x="190" y="370" width="120" height="60" as="geometry" />
        </mxCell>
      </root>
    </mxGraphModel>
  </diagram>
</mxfile>
